<?xml version="1.0" encoding="UTF-8" standalone="no"?><svg xmlns="http://www.w3.org/2000/svg" xmlns:xlink="http://www.w3.org/1999/xlink" contentStyleType="text/css" height="1382px" preserveAspectRatio="none" style="width:891px;height:1382px;background:#FFFFFF;" version="1.1" viewBox="0 0 891 1382" width="891px" zoomAndPan="magnify"><defs/><g><!--MD5=[0b4e4b4980470ea387cc45de9bd14b5b]
class Application--><g id="elem_Application"><rect codeLine="10" fill="#F1F1F1" height="83.2188" id="Application" rx="2.5" ry="2.5" style="stroke:#181818;stroke-width:0.5;" width="126" x="588.5" y="142"/><ellipse cx="614.75" cy="158" fill="#ADD1B2" rx="11" ry="11" style="stroke:#181818;stroke-width:1.0;"/><path d="M617.5156,153.875 Q617.6719,153.6563 617.8594,153.5469 Q618.0469,153.4375 618.2656,153.4375 Q618.6406,153.4375 618.875,153.7031 Q619.1094,153.9531 619.1094,154.5625 L619.1094,156.0156 Q619.1094,156.625 618.875,156.8906 Q618.6406,157.1563 618.2656,157.1563 Q617.9219,157.1563 617.7188,156.9531 Q617.5156,156.7656 617.4063,156.25 Q617.3594,155.8906 617.1719,155.7031 Q616.8438,155.3281 616.2344,155.1094 Q615.625,154.8906 615,154.8906 Q614.2344,154.8906 613.5938,155.2188 Q612.9688,155.5469 612.4688,156.2969 Q611.9844,157.0469 611.9844,158.0781 L611.9844,159.1719 Q611.9844,160.4063 612.875,161.2344 Q613.7656,162.0469 615.3594,162.0469 Q616.2969,162.0469 616.9531,161.7969 Q617.3438,161.6406 617.7656,161.2031 Q618.0313,160.9375 618.1719,160.8594 Q618.3281,160.7813 618.5313,160.7813 Q618.8594,160.7813 619.1094,161.0469 Q619.375,161.2969 619.375,161.6406 Q619.375,161.9844 619.0313,162.3906 Q618.5313,162.9688 617.7344,163.2969 Q616.6563,163.75 615.3594,163.75 Q613.8438,163.75 612.6406,163.125 Q611.6563,162.625 610.9688,161.5625 Q610.2813,160.4844 610.2813,159.2031 L610.2813,158.0469 Q610.2813,156.7188 610.8906,155.5781 Q611.5156,154.4219 612.6094,153.8125 Q613.7031,153.1875 614.9375,153.1875 Q615.6719,153.1875 616.3125,153.3594 Q616.9688,153.5156 617.5156,153.875 Z " fill="#000000"/><text fill="#000000" font-family="sans-serif" font-size="14" lengthAdjust="spacing" textLength="69" x="631.25" y="163.7285">Application</text><line style="stroke:#181818;stroke-width:0.5;" x1="589.5" x2="713.5" y1="174" y2="174"/><rect fill="none" height="6" style="stroke:#C82930;stroke-width:1.0;" width="6" x="596.5" y="185.3047"/><text fill="#000000" font-family="sans-serif" font-size="14" lengthAdjust="spacing" textLength="100" x="608.5" y="192.5332">LoginWindow lw</text><line style="stroke:#181818;stroke-width:0.5;" x1="589.5" x2="713.5" y1="199.6094" y2="199.6094"/><ellipse cx="599.5" cy="213.9141" fill="#84BE84" rx="3" ry="3" style="stroke:#038048;stroke-width:1.0;"/><text fill="#000000" font-family="sans-serif" font-size="14" lengthAdjust="spacing" textLength="70" x="608.5" y="218.1426">void main()</text></g><!--MD5=[5103e3471bf31fadd75905833dcba617]
class LoginController--><g id="elem_LoginController"><rect codeLine="17" fill="#F1F1F1" height="126.4375" id="LoginController" rx="2.5" ry="2.5" style="stroke:#181818;stroke-width:0.5;" width="219" x="445" y="294"/><ellipse cx="501.75" cy="310" fill="#ADD1B2" rx="11" ry="11" style="stroke:#181818;stroke-width:1.0;"/><path d="M504.5156,305.875 Q504.6719,305.6563 504.8594,305.5469 Q505.0469,305.4375 505.2656,305.4375 Q505.6406,305.4375 505.875,305.7031 Q506.1094,305.9531 506.1094,306.5625 L506.1094,308.0156 Q506.1094,308.625 505.875,308.8906 Q505.6406,309.1563 505.2656,309.1563 Q504.9219,309.1563 504.7188,308.9531 Q504.5156,308.7656 504.4063,308.25 Q504.3594,307.8906 504.1719,307.7031 Q503.8438,307.3281 503.2344,307.1094 Q502.625,306.8906 502,306.8906 Q501.2344,306.8906 500.5938,307.2188 Q499.9688,307.5469 499.4688,308.2969 Q498.9844,309.0469 498.9844,310.0781 L498.9844,311.1719 Q498.9844,312.4063 499.875,313.2344 Q500.7656,314.0469 502.3594,314.0469 Q503.2969,314.0469 503.9531,313.7969 Q504.3438,313.6406 504.7656,313.2031 Q505.0313,312.9375 505.1719,312.8594 Q505.3281,312.7813 505.5313,312.7813 Q505.8594,312.7813 506.1094,313.0469 Q506.375,313.2969 506.375,313.6406 Q506.375,313.9844 506.0313,314.3906 Q505.5313,314.9688 504.7344,315.2969 Q503.6563,315.75 502.3594,315.75 Q500.8438,315.75 499.6406,315.125 Q498.6563,314.625 497.9688,313.5625 Q497.2813,312.4844 497.2813,311.2031 L497.2813,310.0469 Q497.2813,308.7188 497.8906,307.5781 Q498.5156,306.4219 499.6094,305.8125 Q500.7031,305.1875 501.9375,305.1875 Q502.6719,305.1875 503.3125,305.3594 Q503.9688,305.5156 504.5156,305.875 Z " fill="#000000"/><text fill="#000000" font-family="sans-serif" font-size="14" lengthAdjust="spacing" textLength="97" x="522.25" y="315.7285">LoginController</text><line style="stroke:#181818;stroke-width:0.5;" x1="446" x2="663" y1="326" y2="326"/><rect fill="none" height="6" style="stroke:#C82930;stroke-width:1.0;" width="6" x="453" y="337.3047"/><text fill="#000000" font-family="sans-serif" font-size="14" lengthAdjust="spacing" textLength="105" x="465" y="344.5332">String userName</text><line style="stroke:#181818;stroke-width:0.5;" x1="446" x2="663" y1="351.6094" y2="351.6094"/><ellipse cx="456" cy="365.9141" fill="#84BE84" rx="3" ry="3" style="stroke:#038048;stroke-width:1.0;"/><text fill="#000000" font-family="sans-serif" font-size="14" lengthAdjust="spacing" textLength="70" x="465" y="370.1426">void login()</text><line style="stroke:#181818;stroke-width:0.5;" x1="446" x2="663" y1="377.2188" y2="377.2188"/><text fill="#000000" font-family="sans-serif" font-size="14" lengthAdjust="spacing" textLength="157" x="451" y="395.752">The first window the user</text><text fill="#000000" font-family="sans-serif" font-size="14" lengthAdjust="spacing" textLength="207" x="451" y="413.3613">sees when opening the program.</text></g><!--MD5=[ef04072cb3ec9ca43926368903e93307]
class RegisterController--><g id="elem_RegisterController"><rect codeLine="25" fill="#F1F1F1" height="144.0469" id="RegisterController" rx="2.5" ry="2.5" style="stroke:#181818;stroke-width:0.5;" width="191" x="219" y="285"/><ellipse cx="253.8" cy="301" fill="#ADD1B2" rx="11" ry="11" style="stroke:#181818;stroke-width:1.0;"/><path d="M256.5656,296.875 Q256.7219,296.6563 256.9094,296.5469 Q257.0969,296.4375 257.3156,296.4375 Q257.6906,296.4375 257.925,296.7031 Q258.1594,296.9531 258.1594,297.5625 L258.1594,299.0156 Q258.1594,299.625 257.925,299.8906 Q257.6906,300.1563 257.3156,300.1563 Q256.9719,300.1563 256.7688,299.9531 Q256.5656,299.7656 256.4563,299.25 Q256.4094,298.8906 256.2219,298.7031 Q255.8938,298.3281 255.2844,298.1094 Q254.675,297.8906 254.05,297.8906 Q253.2844,297.8906 252.6438,298.2188 Q252.0188,298.5469 251.5188,299.2969 Q251.0344,300.0469 251.0344,301.0781 L251.0344,302.1719 Q251.0344,303.4063 251.925,304.2344 Q252.8156,305.0469 254.4094,305.0469 Q255.3469,305.0469 256.0031,304.7969 Q256.3938,304.6406 256.8156,304.2031 Q257.0813,303.9375 257.2219,303.8594 Q257.3781,303.7813 257.5813,303.7813 Q257.9094,303.7813 258.1594,304.0469 Q258.425,304.2969 258.425,304.6406 Q258.425,304.9844 258.0813,305.3906 Q257.5813,305.9688 256.7844,306.2969 Q255.7063,306.75 254.4094,306.75 Q252.8938,306.75 251.6906,306.125 Q250.7063,305.625 250.0188,304.5625 Q249.3313,303.4844 249.3313,302.2031 L249.3313,301.0469 Q249.3313,299.7188 249.9406,298.5781 Q250.5656,297.4219 251.6594,296.8125 Q252.7531,296.1875 253.9875,296.1875 Q254.7219,296.1875 255.3625,296.3594 Q256.0188,296.5156 256.5656,296.875 Z " fill="#000000"/><text fill="#000000" font-family="sans-serif" font-size="14" lengthAdjust="spacing" textLength="115" x="272.2" y="306.7285">RegisterController</text><line style="stroke:#181818;stroke-width:0.5;" x1="220" x2="409" y1="317" y2="317"/><rect fill="none" height="6" style="stroke:#C82930;stroke-width:1.0;" width="6" x="227" y="328.3047"/><text fill="#000000" font-family="sans-serif" font-size="14" lengthAdjust="spacing" textLength="110" x="239" y="335.5332">String credentials</text><line style="stroke:#181818;stroke-width:0.5;" x1="220" x2="409" y1="342.6094" y2="342.6094"/><ellipse cx="230" cy="356.9141" fill="#84BE84" rx="3" ry="3" style="stroke:#038048;stroke-width:1.0;"/><text fill="#000000" font-family="sans-serif" font-size="14" lengthAdjust="spacing" textLength="88" x="239" y="361.1426">void register()</text><line style="stroke:#181818;stroke-width:0.5;" x1="220" x2="409" y1="368.2188" y2="368.2188"/><text fill="#000000" font-family="sans-serif" font-size="14" lengthAdjust="spacing" textLength="179" x="225" y="386.752">Window to enter the data for</text><text fill="#000000" font-family="sans-serif" font-size="14" lengthAdjust="spacing" textLength="73" x="225" y="404.3613">a new user.</text><text fill="#000000" font-family="sans-serif" font-size="14" lengthAdjust="spacing" textLength="4" x="225" y="421.9707"> </text></g><!--MD5=[72939c3e367985afe71cef296215c70d]
class GreetController--><g id="elem_GreetController"><rect codeLine="34" fill="#F1F1F1" height="83.2188" id="GreetController" rx="2.5" ry="2.5" style="stroke:#181818;stroke-width:0.5;" width="185" x="699" y="315.5"/><ellipse cx="738.75" cy="331.5" fill="#ADD1B2" rx="11" ry="11" style="stroke:#181818;stroke-width:1.0;"/><path d="M741.5156,327.375 Q741.6719,327.1563 741.8594,327.0469 Q742.0469,326.9375 742.2656,326.9375 Q742.6406,326.9375 742.875,327.2031 Q743.1094,327.4531 743.1094,328.0625 L743.1094,329.5156 Q743.1094,330.125 742.875,330.3906 Q742.6406,330.6563 742.2656,330.6563 Q741.9219,330.6563 741.7188,330.4531 Q741.5156,330.2656 741.4063,329.75 Q741.3594,329.3906 741.1719,329.2031 Q740.8438,328.8281 740.2344,328.6094 Q739.625,328.3906 739,328.3906 Q738.2344,328.3906 737.5938,328.7188 Q736.9688,329.0469 736.4688,329.7969 Q735.9844,330.5469 735.9844,331.5781 L735.9844,332.6719 Q735.9844,333.9063 736.875,334.7344 Q737.7656,335.5469 739.3594,335.5469 Q740.2969,335.5469 740.9531,335.2969 Q741.3438,335.1406 741.7656,334.7031 Q742.0313,334.4375 742.1719,334.3594 Q742.3281,334.2813 742.5313,334.2813 Q742.8594,334.2813 743.1094,334.5469 Q743.375,334.7969 743.375,335.1406 Q743.375,335.4844 743.0313,335.8906 Q742.5313,336.4688 741.7344,336.7969 Q740.6563,337.25 739.3594,337.25 Q737.8438,337.25 736.6406,336.625 Q735.6563,336.125 734.9688,335.0625 Q734.2813,333.9844 734.2813,332.7031 L734.2813,331.5469 Q734.2813,330.2188 734.8906,329.0781 Q735.5156,327.9219 736.6094,327.3125 Q737.7031,326.6875 738.9375,326.6875 Q739.6719,326.6875 740.3125,326.8594 Q740.9688,327.0156 741.5156,327.375 Z " fill="#000000"/><text fill="#000000" font-family="sans-serif" font-size="14" lengthAdjust="spacing" textLength="98" x="758.25" y="337.2285">GreetController</text><line style="stroke:#181818;stroke-width:0.5;" x1="700" x2="883" y1="347.5" y2="347.5"/><rect fill="none" height="6" style="stroke:#C82930;stroke-width:1.0;" width="6" x="707" y="358.8047"/><text fill="#000000" font-family="sans-serif" font-size="14" lengthAdjust="spacing" textLength="74" x="719" y="366.0332">String greet</text><line style="stroke:#181818;stroke-width:0.5;" x1="700" x2="883" y1="373.1094" y2="373.1094"/><text fill="#000000" font-family="sans-serif" font-size="14" lengthAdjust="spacing" textLength="173" x="705" y="391.6426">GreetWindow (String greet)</text></g><!--MD5=[56ab46cd423624563d94b9f2eeeea516]
class IUserManager--><g id="elem_IUserManager"><rect codeLine="41" fill="#F1F1F1" height="75.2188" id="IUserManager" rx="2.5" ry="2.5" style="stroke:#181818;stroke-width:0.5;" width="140" x="364.5" y="624"/><ellipse cx="387.15" cy="640" fill="#B4A7E5" rx="11" ry="11" style="stroke:#181818;stroke-width:1.0;"/><path d="M388.1031,636.6406 L388.1031,643.2969 L389.8219,643.2969 Q390.4313,643.2969 390.6969,643.5313 Q390.9625,643.7656 390.9625,644.1563 Q390.9625,644.5313 390.6969,644.7656 Q390.4313,645 389.8219,645 L384.6813,645 Q384.0719,645 383.8063,644.7656 Q383.5406,644.5313 383.5406,644.1406 Q383.5406,643.7656 383.8063,643.5313 Q384.0719,643.2969 384.6813,643.2969 L386.4,643.2969 L386.4,636.6406 L384.6813,636.6406 Q384.0719,636.6406 383.8063,636.4063 Q383.5406,636.1719 383.5406,635.7813 Q383.5406,635.4063 383.8063,635.1719 Q384.0719,634.9375 384.6813,634.9375 L389.8219,634.9375 Q390.4313,634.9375 390.6969,635.1719 Q390.9625,635.4063 390.9625,635.7813 Q390.9625,636.1719 390.6969,636.4063 Q390.4313,636.6406 389.8219,636.6406 L388.1031,636.6406 Z " fill="#000000"/><text fill="#000000" font-family="sans-serif" font-size="14" font-style="italic" lengthAdjust="spacing" textLength="91" x="402.85" y="645.7285">IUserManager</text><line style="stroke:#181818;stroke-width:0.5;" x1="365.5" x2="503.5" y1="656" y2="656"/><ellipse cx="375.5" cy="670.3047" fill="#84BE84" rx="3" ry="3" style="stroke:#038048;stroke-width:1.0;"/><text fill="#000000" font-family="sans-serif" font-size="14" lengthAdjust="spacing" textLength="108" x="384.5" y="674.5332">Message signIn()</text><ellipse cx="375.5" cy="687.9141" fill="#84BE84" rx="3" ry="3" style="stroke:#038048;stroke-width:1.0;"/><text fill="#000000" font-family="sans-serif" font-size="14" lengthAdjust="spacing" textLength="114" x="384.5" y="692.1426">Message signUp()</text></g><!--MD5=[4e30eb8dc1d2118668efb74077f691f1]
class IUMImplementation--><g id="elem_IUMImplementation"><rect codeLine="45" fill="#F1F1F1" height="118.4375" id="IUMImplementation" rx="2.5" ry="2.5" style="stroke:#181818;stroke-width:0.5;" width="210" x="329.5" y="825"/><ellipse cx="371.5" cy="841" fill="#ADD1B2" rx="11" ry="11" style="stroke:#181818;stroke-width:1.0;"/><path d="M374.2656,836.875 Q374.4219,836.6563 374.6094,836.5469 Q374.7969,836.4375 375.0156,836.4375 Q375.3906,836.4375 375.625,836.7031 Q375.8594,836.9531 375.8594,837.5625 L375.8594,839.0156 Q375.8594,839.625 375.625,839.8906 Q375.3906,840.1563 375.0156,840.1563 Q374.6719,840.1563 374.4688,839.9531 Q374.2656,839.7656 374.1563,839.25 Q374.1094,838.8906 373.9219,838.7031 Q373.5938,838.3281 372.9844,838.1094 Q372.375,837.8906 371.75,837.8906 Q370.9844,837.8906 370.3438,838.2188 Q369.7188,838.5469 369.2188,839.2969 Q368.7344,840.0469 368.7344,841.0781 L368.7344,842.1719 Q368.7344,843.4063 369.625,844.2344 Q370.5156,845.0469 372.1094,845.0469 Q373.0469,845.0469 373.7031,844.7969 Q374.0938,844.6406 374.5156,844.2031 Q374.7813,843.9375 374.9219,843.8594 Q375.0781,843.7813 375.2813,843.7813 Q375.6094,843.7813 375.8594,844.0469 Q376.125,844.2969 376.125,844.6406 Q376.125,844.9844 375.7813,845.3906 Q375.2813,845.9688 374.4844,846.2969 Q373.4063,846.75 372.1094,846.75 Q370.5938,846.75 369.3906,846.125 Q368.4063,845.625 367.7188,844.5625 Q367.0313,843.4844 367.0313,842.2031 L367.0313,841.0469 Q367.0313,839.7188 367.6406,838.5781 Q368.2656,837.4219 369.3594,836.8125 Q370.4531,836.1875 371.6875,836.1875 Q372.4219,836.1875 373.0625,836.3594 Q373.7188,836.5156 374.2656,836.875 Z " fill="#000000"/><text fill="#000000" font-family="sans-serif" font-size="14" lengthAdjust="spacing" textLength="118" x="391.5" y="846.7285">IUMImplementation</text><line style="stroke:#181818;stroke-width:0.5;" x1="330.5" x2="538.5" y1="857" y2="857"/><ellipse cx="340.5" cy="871.3047" fill="#84BE84" rx="3" ry="3" style="stroke:#038048;stroke-width:1.0;"/><text fill="#000000" font-family="sans-serif" font-size="14" lengthAdjust="spacing" textLength="70" x="349.5" y="875.5332">void login()</text><ellipse cx="340.5" cy="888.9141" fill="#84BE84" rx="3" ry="3" style="stroke:#038048;stroke-width:1.0;"/><text fill="#000000" font-family="sans-serif" font-size="14" lengthAdjust="spacing" textLength="77" x="349.5" y="893.1426">void signIn()</text><rect fill="#F24D5C" height="6" style="stroke:#C82930;stroke-width:1.0;" width="6" x="337.5" y="903.5234"/><text fill="#000000" font-family="sans-serif" font-size="14" lengthAdjust="spacing" textLength="100" x="349.5" y="910.752">List getUusers()</text><line style="stroke:#181818;stroke-width:0.5;" x1="330.5" x2="538.5" y1="917.8281" y2="917.8281"/><text fill="#000000" font-family="sans-serif" font-size="14" lengthAdjust="spacing" textLength="198" x="335.5" y="936.3613">DAO. Returns the User objects.</text></g><!--MD5=[95ec33ef8e27c405ceb88aee54b1a4ee]
class UserManagerFactory--><g id="elem_UserManagerFactory"><rect codeLine="52" fill="#F1F1F1" height="57.6094" id="UserManagerFactory" rx="2.5" ry="2.5" style="stroke:#181818;stroke-width:0.5;" width="184" x="342.5" y="497.5"/><ellipse cx="366.05" cy="513.5" fill="#ADD1B2" rx="11" ry="11" style="stroke:#181818;stroke-width:1.0;"/><path d="M368.8156,509.375 Q368.9719,509.1563 369.1594,509.0469 Q369.3469,508.9375 369.5656,508.9375 Q369.9406,508.9375 370.175,509.2031 Q370.4094,509.4531 370.4094,510.0625 L370.4094,511.5156 Q370.4094,512.125 370.175,512.3906 Q369.9406,512.6563 369.5656,512.6563 Q369.2219,512.6563 369.0188,512.4531 Q368.8156,512.2656 368.7063,511.75 Q368.6594,511.3906 368.4719,511.2031 Q368.1438,510.8281 367.5344,510.6094 Q366.925,510.3906 366.3,510.3906 Q365.5344,510.3906 364.8938,510.7188 Q364.2688,511.0469 363.7688,511.7969 Q363.2844,512.5469 363.2844,513.5781 L363.2844,514.6719 Q363.2844,515.9063 364.175,516.7344 Q365.0656,517.5469 366.6594,517.5469 Q367.5969,517.5469 368.2531,517.2969 Q368.6438,517.1406 369.0656,516.7031 Q369.3313,516.4375 369.4719,516.3594 Q369.6281,516.2813 369.8313,516.2813 Q370.1594,516.2813 370.4094,516.5469 Q370.675,516.7969 370.675,517.1406 Q370.675,517.4844 370.3313,517.8906 Q369.8313,518.4688 369.0344,518.7969 Q367.9563,519.25 366.6594,519.25 Q365.1438,519.25 363.9406,518.625 Q362.9563,518.125 362.2688,517.0625 Q361.5813,515.9844 361.5813,514.7031 L361.5813,513.5469 Q361.5813,512.2188 362.1906,511.0781 Q362.8156,509.9219 363.9094,509.3125 Q365.0031,508.6875 366.2375,508.6875 Q366.9719,508.6875 367.6125,508.8594 Q368.2688,509.0156 368.8156,509.375 Z " fill="#000000"/><text fill="#000000" font-family="sans-serif" font-size="14" lengthAdjust="spacing" textLength="133" x="381.95" y="519.2285">UserManagerFactory</text><line style="stroke:#181818;stroke-width:0.5;" x1="343.5" x2="525.5" y1="529.5" y2="529.5"/><ellipse cx="353.5" cy="543.8047" fill="#84BE84" rx="3" ry="3" style="stroke:#038048;stroke-width:1.0;"/><text fill="#000000" font-family="sans-serif" font-size="14" lengthAdjust="spacing" textLength="158" x="362.5" y="548.0332">IUserManager getUsers()</text></g><!--MD5=[8f07f51d887e64eddc161f608ee0ddb0]
class Socket--><g id="elem_Socket"><rect codeLine="57" fill="#F1F1F1" height="100.8281" id="Socket" rx="2.5" ry="2.5" style="stroke:#181818;stroke-width:0.5;" width="178" x="116.5" y="833.5"/><ellipse cx="179.75" cy="849.5" fill="#ADD1B2" rx="11" ry="11" style="stroke:#181818;stroke-width:1.0;"/><path d="M182.5156,845.375 Q182.6719,845.1563 182.8594,845.0469 Q183.0469,844.9375 183.2656,844.9375 Q183.6406,844.9375 183.875,845.2031 Q184.1094,845.4531 184.1094,846.0625 L184.1094,847.5156 Q184.1094,848.125 183.875,848.3906 Q183.6406,848.6563 183.2656,848.6563 Q182.9219,848.6563 182.7188,848.4531 Q182.5156,848.2656 182.4063,847.75 Q182.3594,847.3906 182.1719,847.2031 Q181.8438,846.8281 181.2344,846.6094 Q180.625,846.3906 180,846.3906 Q179.2344,846.3906 178.5938,846.7188 Q177.9688,847.0469 177.4688,847.7969 Q176.9844,848.5469 176.9844,849.5781 L176.9844,850.6719 Q176.9844,851.9063 177.875,852.7344 Q178.7656,853.5469 180.3594,853.5469 Q181.2969,853.5469 181.9531,853.2969 Q182.3438,853.1406 182.7656,852.7031 Q183.0313,852.4375 183.1719,852.3594 Q183.3281,852.2813 183.5313,852.2813 Q183.8594,852.2813 184.1094,852.5469 Q184.375,852.7969 184.375,853.1406 Q184.375,853.4844 184.0313,853.8906 Q183.5313,854.4688 182.7344,854.7969 Q181.6563,855.25 180.3594,855.25 Q178.8438,855.25 177.6406,854.625 Q176.6563,854.125 175.9688,853.0625 Q175.2813,851.9844 175.2813,850.7031 L175.2813,849.5469 Q175.2813,848.2188 175.8906,847.0781 Q176.5156,845.9219 177.6094,845.3125 Q178.7031,844.6875 179.9375,844.6875 Q180.6719,844.6875 181.3125,844.8594 Q181.9688,845.0156 182.5156,845.375 Z " fill="#000000"/><text fill="#000000" font-family="sans-serif" font-size="14" lengthAdjust="spacing" textLength="43" x="200.25" y="855.2285">Socket</text><line style="stroke:#181818;stroke-width:0.5;" x1="117.5" x2="293.5" y1="865.5" y2="865.5"/><text fill="#000000" font-family="sans-serif" font-size="14" lengthAdjust="spacing" textLength="119" x="122.5" y="884.0332">InputStream read()</text><text fill="#000000" font-family="sans-serif" font-size="14" lengthAdjust="spacing" textLength="131" x="122.5" y="901.6426">OutputStream write()</text><line style="stroke:#181818;stroke-width:0.5;" x1="117.5" x2="293.5" y1="908.7188" y2="908.7188"/><text fill="#000000" font-family="sans-serif" font-size="14" lengthAdjust="spacing" textLength="166" x="122.5" y="927.252">All this stuff already exists.</text></g><!--MD5=[3fd616f346a44cd59a91eb10b19e157c]
class User--><g id="elem_User"><rect codeLine="65" fill="#F1F1F1" height="249.7031" id="User" rx="2.5" ry="2.5" style="stroke:#181818;stroke-width:0.5;" width="232" x="574.5" y="759"/><ellipse cx="671.75" cy="775" fill="#ADD1B2" rx="11" ry="11" style="stroke:#181818;stroke-width:1.0;"/><path d="M674.5156,770.875 Q674.6719,770.6563 674.8594,770.5469 Q675.0469,770.4375 675.2656,770.4375 Q675.6406,770.4375 675.875,770.7031 Q676.1094,770.9531 676.1094,771.5625 L676.1094,773.0156 Q676.1094,773.625 675.875,773.8906 Q675.6406,774.1563 675.2656,774.1563 Q674.9219,774.1563 674.7188,773.9531 Q674.5156,773.7656 674.4063,773.25 Q674.3594,772.8906 674.1719,772.7031 Q673.8438,772.3281 673.2344,772.1094 Q672.625,771.8906 672,771.8906 Q671.2344,771.8906 670.5938,772.2188 Q669.9688,772.5469 669.4688,773.2969 Q668.9844,774.0469 668.9844,775.0781 L668.9844,776.1719 Q668.9844,777.4063 669.875,778.2344 Q670.7656,779.0469 672.3594,779.0469 Q673.2969,779.0469 673.9531,778.7969 Q674.3438,778.6406 674.7656,778.2031 Q675.0313,777.9375 675.1719,777.8594 Q675.3281,777.7813 675.5313,777.7813 Q675.8594,777.7813 676.1094,778.0469 Q676.375,778.2969 676.375,778.6406 Q676.375,778.9844 676.0313,779.3906 Q675.5313,779.9688 674.7344,780.2969 Q673.6563,780.75 672.3594,780.75 Q670.8438,780.75 669.6406,780.125 Q668.6563,779.625 667.9688,778.5625 Q667.2813,777.4844 667.2813,776.2031 L667.2813,775.0469 Q667.2813,773.7188 667.8906,772.5781 Q668.5156,771.4219 669.6094,770.8125 Q670.7031,770.1875 671.9375,770.1875 Q672.6719,770.1875 673.3125,770.3594 Q673.9688,770.5156 674.5156,770.875 Z " fill="#000000"/><text fill="#000000" font-family="sans-serif" font-size="14" lengthAdjust="spacing" textLength="29" x="692.25" y="780.7285">User</text><line style="stroke:#181818;stroke-width:0.5;" x1="575.5" x2="805.5" y1="791" y2="791"/><rect fill="none" height="6" style="stroke:#C82930;stroke-width:1.0;" width="6" x="582.5" y="802.3047"/><text fill="#000000" font-family="sans-serif" font-size="14" lengthAdjust="spacing" textLength="61" x="594.5" y="809.5332">Integer ID</text><rect fill="none" height="6" style="stroke:#C82930;stroke-width:1.0;" width="6" x="582.5" y="819.9141"/><text fill="#000000" font-family="sans-serif" font-size="14" lengthAdjust="spacing" textLength="71" x="594.5" y="827.1426">String login</text><rect fill="none" height="6" style="stroke:#C82930;stroke-width:1.0;" width="6" x="582.5" y="837.5234"/><text fill="#000000" font-family="sans-serif" font-size="14" lengthAdjust="spacing" textLength="74" x="594.5" y="844.752">String email</text><rect fill="none" height="6" style="stroke:#C82930;stroke-width:1.0;" width="6" x="582.5" y="855.1328"/><text fill="#000000" font-family="sans-serif" font-size="14" lengthAdjust="spacing" textLength="95" x="594.5" y="862.3613">String fullName</text><rect fill="none" height="6" style="stroke:#C82930;stroke-width:1.0;" width="6" x="582.5" y="872.7422"/><text fill="#000000" font-family="sans-serif" font-size="14" lengthAdjust="spacing" textLength="101" x="594.5" y="879.9707">String password</text><rect fill="none" height="6" style="stroke:#C82930;stroke-width:1.0;" width="6" x="582.5" y="890.3516"/><text fill="#000000" font-family="sans-serif" font-size="14" lengthAdjust="spacing" textLength="206" x="594.5" y="897.5801">Timestamp lastPasswordChange</text><rect fill="none" height="6" style="stroke:#C82930;stroke-width:1.0;" width="6" x="582.5" y="907.9609"/><text fill="#000000" font-family="sans-serif" font-size="14" lengthAdjust="spacing" textLength="111" x="594.5" y="915.1895">UserStatus status</text><rect fill="none" height="6" style="stroke:#C82930;stroke-width:1.0;" width="6" x="582.5" y="925.5703"/><text fill="#000000" font-family="sans-serif" font-size="14" lengthAdjust="spacing" textLength="140" x="594.5" y="932.7988">UserPrivilege privilege</text><rect fill="none" height="6" style="stroke:#C82930;stroke-width:1.0;" width="6" x="582.5" y="943.1797"/><text fill="#000000" font-family="sans-serif" font-size="14" lengthAdjust="spacing" textLength="130" x="594.5" y="950.4082">Collection lastLogins</text><line style="stroke:#181818;stroke-width:0.5;" x1="575.5" x2="805.5" y1="957.4844" y2="957.4844"/><ellipse cx="585.5" cy="971.7891" fill="#84BE84" rx="3" ry="3" style="stroke:#038048;stroke-width:1.0;"/><text fill="#000000" font-family="sans-serif" font-size="14" lengthAdjust="spacing" textLength="97" x="594.5" y="976.0176">void whatever()</text><line style="stroke:#181818;stroke-width:0.5;" x1="575.5" x2="805.5" y1="983.0938" y2="983.0938"/><text fill="#000000" font-family="sans-serif" font-size="14" lengthAdjust="spacing" textLength="174" x="580.5" y="1001.627">Object that moves the data.</text></g><!--MD5=[05f0738710ff64ff186a72f4e8320a3a]
class SignIn--><g id="elem_SignIn"><rect codeLine="80" fill="#F1F1F1" height="57.6094" id="SignIn" rx="2.5" ry="2.5" style="stroke:#181818;stroke-width:0.5;" width="160" x="610.5" y="632.5"/><ellipse cx="666.75" cy="648.5" fill="#ADD1B2" rx="11" ry="11" style="stroke:#181818;stroke-width:1.0;"/><path d="M669.5156,644.375 Q669.6719,644.1563 669.8594,644.0469 Q670.0469,643.9375 670.2656,643.9375 Q670.6406,643.9375 670.875,644.2031 Q671.1094,644.4531 671.1094,645.0625 L671.1094,646.5156 Q671.1094,647.125 670.875,647.3906 Q670.6406,647.6563 670.2656,647.6563 Q669.9219,647.6563 669.7188,647.4531 Q669.5156,647.2656 669.4063,646.75 Q669.3594,646.3906 669.1719,646.2031 Q668.8438,645.8281 668.2344,645.6094 Q667.625,645.3906 667,645.3906 Q666.2344,645.3906 665.5938,645.7188 Q664.9688,646.0469 664.4688,646.7969 Q663.9844,647.5469 663.9844,648.5781 L663.9844,649.6719 Q663.9844,650.9063 664.875,651.7344 Q665.7656,652.5469 667.3594,652.5469 Q668.2969,652.5469 668.9531,652.2969 Q669.3438,652.1406 669.7656,651.7031 Q670.0313,651.4375 670.1719,651.3594 Q670.3281,651.2813 670.5313,651.2813 Q670.8594,651.2813 671.1094,651.5469 Q671.375,651.7969 671.375,652.1406 Q671.375,652.4844 671.0313,652.8906 Q670.5313,653.4688 669.7344,653.7969 Q668.6563,654.25 667.3594,654.25 Q665.8438,654.25 664.6406,653.625 Q663.6563,653.125 662.9688,652.0625 Q662.2813,650.9844 662.2813,649.7031 L662.2813,648.5469 Q662.2813,647.2188 662.8906,646.0781 Q663.5156,644.9219 664.6094,644.3125 Q665.7031,643.6875 666.9375,643.6875 Q667.6719,643.6875 668.3125,643.8594 Q668.9688,644.0156 669.5156,644.375 Z " fill="#000000"/><text fill="#000000" font-family="sans-serif" font-size="14" lengthAdjust="spacing" textLength="39" x="687.25" y="654.2285">SignIn</text><line style="stroke:#181818;stroke-width:0.5;" x1="611.5" x2="769.5" y1="664.5" y2="664.5"/><rect fill="none" height="6" style="stroke:#C82930;stroke-width:1.0;" width="6" x="618.5" y="675.8047"/><text fill="#000000" font-family="sans-serif" font-size="14" lengthAdjust="spacing" textLength="134" x="630.5" y="683.0332">Timestamp lastSignIn</text></g><!--MD5=[0851f84a889f989e7bb0bebc385d0f09]
class Request--><g id="elem_Request"><rect codeLine="86" fill="#F1F1F1" height="118.4375" id="Request" rx="2.5" ry="2.5" style="stroke:#181818;stroke-width:0.5;" width="195" x="589" y="1069"/><ellipse cx="655.75" cy="1085" fill="#ADD1B2" rx="11" ry="11" style="stroke:#181818;stroke-width:1.0;"/><path d="M658.5156,1080.875 Q658.6719,1080.6563 658.8594,1080.5469 Q659.0469,1080.4375 659.2656,1080.4375 Q659.6406,1080.4375 659.875,1080.7031 Q660.1094,1080.9531 660.1094,1081.5625 L660.1094,1083.0156 Q660.1094,1083.625 659.875,1083.8906 Q659.6406,1084.1563 659.2656,1084.1563 Q658.9219,1084.1563 658.7188,1083.9531 Q658.5156,1083.7656 658.4063,1083.25 Q658.3594,1082.8906 658.1719,1082.7031 Q657.8438,1082.3281 657.2344,1082.1094 Q656.625,1081.8906 656,1081.8906 Q655.2344,1081.8906 654.5938,1082.2188 Q653.9688,1082.5469 653.4688,1083.2969 Q652.9844,1084.0469 652.9844,1085.0781 L652.9844,1086.1719 Q652.9844,1087.4063 653.875,1088.2344 Q654.7656,1089.0469 656.3594,1089.0469 Q657.2969,1089.0469 657.9531,1088.7969 Q658.3438,1088.6406 658.7656,1088.2031 Q659.0313,1087.9375 659.1719,1087.8594 Q659.3281,1087.7813 659.5313,1087.7813 Q659.8594,1087.7813 660.1094,1088.0469 Q660.375,1088.2969 660.375,1088.6406 Q660.375,1088.9844 660.0313,1089.3906 Q659.5313,1089.9688 658.7344,1090.2969 Q657.6563,1090.75 656.3594,1090.75 Q654.8438,1090.75 653.6406,1090.125 Q652.6563,1089.625 651.9688,1088.5625 Q651.2813,1087.4844 651.2813,1086.2031 L651.2813,1085.0469 Q651.2813,1083.7188 651.8906,1082.5781 Q652.5156,1081.4219 653.6094,1080.8125 Q654.7031,1080.1875 655.9375,1080.1875 Q656.6719,1080.1875 657.3125,1080.3594 Q657.9688,1080.5156 658.5156,1080.875 Z " fill="#000000"/><text fill="#000000" font-family="sans-serif" font-size="14" lengthAdjust="spacing" textLength="53" x="676.25" y="1090.7285">Request</text><line style="stroke:#181818;stroke-width:0.5;" x1="590" x2="783" y1="1101" y2="1101"/><rect fill="none" height="6" style="stroke:#C82930;stroke-width:1.0;" width="6" x="597" y="1112.3047"/><text fill="#000000" font-family="sans-serif" font-size="14" lengthAdjust="spacing" textLength="61" x="609" y="1119.5332">User user</text><rect fill="none" height="6" style="stroke:#C82930;stroke-width:1.0;" width="6" x="597" y="1129.9141"/><text fill="#000000" font-family="sans-serif" font-size="14" lengthAdjust="spacing" textLength="169" x="609" y="1137.1426">RequestType requestType</text><line style="stroke:#181818;stroke-width:0.5;" x1="590" x2="783" y1="1144.2188" y2="1144.2188"/><text fill="#000000" font-family="sans-serif" font-size="14" lengthAdjust="spacing" textLength="123" x="595" y="1162.752">Stores the action to</text><text fill="#000000" font-family="sans-serif" font-size="14" lengthAdjust="spacing" textLength="143" x="595" y="1180.3613">be done by the server.</text></g><!--MD5=[e2d8700bfe79070c43730c7948d6f236]
class RequestType--><g id="elem_RequestType"><rect codeLine="94" fill="#F1F1F1" height="75.2188" id="RequestType" rx="2.5" ry="2.5" style="stroke:#181818;stroke-width:0.5;" width="117" x="628" y="1273.5"/><ellipse cx="643" cy="1289.5" fill="#EB937F" rx="11" ry="11" style="stroke:#181818;stroke-width:1.0;"/><path d="M641.8594,1290.2969 L641.8594,1292.7969 L646.1875,1292.7969 L646.1875,1291.875 Q646.1875,1291.2656 646.4219,1291 Q646.6719,1290.7344 647.0469,1290.7344 Q647.4219,1290.7344 647.6563,1291 Q647.8906,1291.2656 647.8906,1291.875 L647.8906,1294.5 L639.8906,1294.5 Q639.2656,1294.5 639,1294.2656 Q638.75,1294.0313 638.75,1293.6406 Q638.75,1293.2656 639.0156,1293.0313 Q639.2813,1292.7969 639.8906,1292.7969 L640.1563,1292.7969 L640.1563,1286.1406 L639.8906,1286.1406 Q639.2656,1286.1406 639,1285.9063 Q638.75,1285.6719 638.75,1285.2813 Q638.75,1284.9063 639,1284.6719 Q639.2656,1284.4375 639.8906,1284.4375 L647.5156,1284.4375 L647.5156,1287.0313 Q647.5156,1287.6406 647.2813,1287.9063 Q647.0625,1288.1563 646.6719,1288.1563 Q646.2969,1288.1563 646.0625,1287.9063 Q645.8281,1287.6406 645.8281,1287.0313 L645.8281,1286.1406 L641.8594,1286.1406 L641.8594,1288.5938 L643.3438,1288.5938 Q643.3438,1287.9375 643.4688,1287.75 Q643.7344,1287.3438 644.2031,1287.3438 Q644.5781,1287.3438 644.8125,1287.6094 Q645.0469,1287.8594 645.0469,1288.4688 L645.0469,1290.4375 Q645.0469,1290.9844 644.9219,1291.1719 Q644.6563,1291.5625 644.2031,1291.5625 Q643.7344,1291.5625 643.4688,1291.1563 Q643.3438,1290.9688 643.3438,1290.2969 L641.8594,1290.2969 Z " fill="#000000"/><text fill="#000000" font-family="sans-serif" font-size="14" lengthAdjust="spacing" textLength="85" x="657" y="1295.2285">RequestType</text><line style="stroke:#181818;stroke-width:0.5;" x1="629" x2="744" y1="1305.5" y2="1305.5"/><text fill="#000000" font-family="sans-serif" font-size="14" lengthAdjust="spacing" textLength="50" x="634" y="1324.0332">SIGNUP</text><text fill="#000000" font-family="sans-serif" font-size="14" lengthAdjust="spacing" textLength="44" x="634" y="1341.6426">SIGNIN</text></g><!--MD5=[62ba8ad8b61caf20139235a169a8c31d]
class Response--><g id="elem_Response"><rect codeLine="99" fill="#F1F1F1" height="118.4375" id="Response" rx="2.5" ry="2.5" style="stroke:#181818;stroke-width:0.5;" width="217" x="333" y="1069"/><ellipse cx="405.25" cy="1085" fill="#ADD1B2" rx="11" ry="11" style="stroke:#181818;stroke-width:1.0;"/><path d="M408.0156,1080.875 Q408.1719,1080.6563 408.3594,1080.5469 Q408.5469,1080.4375 408.7656,1080.4375 Q409.1406,1080.4375 409.375,1080.7031 Q409.6094,1080.9531 409.6094,1081.5625 L409.6094,1083.0156 Q409.6094,1083.625 409.375,1083.8906 Q409.1406,1084.1563 408.7656,1084.1563 Q408.4219,1084.1563 408.2188,1083.9531 Q408.0156,1083.7656 407.9063,1083.25 Q407.8594,1082.8906 407.6719,1082.7031 Q407.3438,1082.3281 406.7344,1082.1094 Q406.125,1081.8906 405.5,1081.8906 Q404.7344,1081.8906 404.0938,1082.2188 Q403.4688,1082.5469 402.9688,1083.2969 Q402.4844,1084.0469 402.4844,1085.0781 L402.4844,1086.1719 Q402.4844,1087.4063 403.375,1088.2344 Q404.2656,1089.0469 405.8594,1089.0469 Q406.7969,1089.0469 407.4531,1088.7969 Q407.8438,1088.6406 408.2656,1088.2031 Q408.5313,1087.9375 408.6719,1087.8594 Q408.8281,1087.7813 409.0313,1087.7813 Q409.3594,1087.7813 409.6094,1088.0469 Q409.875,1088.2969 409.875,1088.6406 Q409.875,1088.9844 409.5313,1089.3906 Q409.0313,1089.9688 408.2344,1090.2969 Q407.1563,1090.75 405.8594,1090.75 Q404.3438,1090.75 403.1406,1090.125 Q402.1563,1089.625 401.4688,1088.5625 Q400.7813,1087.4844 400.7813,1086.2031 L400.7813,1085.0469 Q400.7813,1083.7188 401.3906,1082.5781 Q402.0156,1081.4219 403.1094,1080.8125 Q404.2031,1080.1875 405.4375,1080.1875 Q406.1719,1080.1875 406.8125,1080.3594 Q407.4688,1080.5156 408.0156,1080.875 Z " fill="#000000"/><text fill="#000000" font-family="sans-serif" font-size="14" lengthAdjust="spacing" textLength="64" x="425.75" y="1090.7285">Response</text><line style="stroke:#181818;stroke-width:0.5;" x1="334" x2="549" y1="1101" y2="1101"/><rect fill="none" height="6" style="stroke:#C82930;stroke-width:1.0;" width="6" x="341" y="1112.3047"/><text fill="#000000" font-family="sans-serif" font-size="14" lengthAdjust="spacing" textLength="61" x="353" y="1119.5332">User user</text><rect fill="none" height="6" style="stroke:#C82930;stroke-width:1.0;" width="6" x="341" y="1129.9141"/><text fill="#000000" font-family="sans-serif" font-size="14" lengthAdjust="spacing" textLength="191" x="353" y="1137.1426">ResponseType responseType</text><line style="stroke:#181818;stroke-width:0.5;" x1="334" x2="549" y1="1144.2188" y2="1144.2188"/><text fill="#000000" font-family="sans-serif" font-size="14" lengthAdjust="spacing" textLength="193" x="339" y="1162.752">Stores the state of the answer,</text><text fill="#000000" font-family="sans-serif" font-size="14" lengthAdjust="spacing" textLength="146" x="339" y="1180.3613">if it went right or wrong.</text></g><!--MD5=[055fb934591a099af6363f512f688300]
class ResponseType--><g id="elem_ResponseType"><rect codeLine="106" fill="#F1F1F1" height="128.0469" id="ResponseType" rx="2.5" ry="2.5" style="stroke:#181818;stroke-width:0.5;" width="206" x="338.5" y="1247"/><ellipse cx="389.25" cy="1263" fill="#EB937F" rx="11" ry="11" style="stroke:#181818;stroke-width:1.0;"/><path d="M388.1094,1263.7969 L388.1094,1266.2969 L392.4375,1266.2969 L392.4375,1265.375 Q392.4375,1264.7656 392.6719,1264.5 Q392.9219,1264.2344 393.2969,1264.2344 Q393.6719,1264.2344 393.9063,1264.5 Q394.1406,1264.7656 394.1406,1265.375 L394.1406,1268 L386.1406,1268 Q385.5156,1268 385.25,1267.7656 Q385,1267.5313 385,1267.1406 Q385,1266.7656 385.2656,1266.5313 Q385.5313,1266.2969 386.1406,1266.2969 L386.4063,1266.2969 L386.4063,1259.6406 L386.1406,1259.6406 Q385.5156,1259.6406 385.25,1259.4063 Q385,1259.1719 385,1258.7813 Q385,1258.4063 385.25,1258.1719 Q385.5156,1257.9375 386.1406,1257.9375 L393.7656,1257.9375 L393.7656,1260.5313 Q393.7656,1261.1406 393.5313,1261.4063 Q393.3125,1261.6563 392.9219,1261.6563 Q392.5469,1261.6563 392.3125,1261.4063 Q392.0781,1261.1406 392.0781,1260.5313 L392.0781,1259.6406 L388.1094,1259.6406 L388.1094,1262.0938 L389.5938,1262.0938 Q389.5938,1261.4375 389.7188,1261.25 Q389.9844,1260.8438 390.4531,1260.8438 Q390.8281,1260.8438 391.0625,1261.1094 Q391.2969,1261.3594 391.2969,1261.9688 L391.2969,1263.9375 Q391.2969,1264.4844 391.1719,1264.6719 Q390.9063,1265.0625 390.4531,1265.0625 Q389.9844,1265.0625 389.7188,1264.6563 Q389.5938,1264.4688 389.5938,1263.7969 L388.1094,1263.7969 Z " fill="#000000"/><text fill="#000000" font-family="sans-serif" font-size="14" lengthAdjust="spacing" textLength="96" x="409.75" y="1268.7285">ResponseType</text><line style="stroke:#181818;stroke-width:0.5;" x1="339.5" x2="543.5" y1="1279" y2="1279"/><text fill="#000000" font-family="sans-serif" font-size="14" lengthAdjust="spacing" textLength="20" x="344.5" y="1297.5332">OK</text><text fill="#000000" font-family="sans-serif" font-size="14" lengthAdjust="spacing" textLength="194" x="344.5" y="1315.1426">LOGIN_CREDENTIAL_ERROR</text><text fill="#000000" font-family="sans-serif" font-size="14" lengthAdjust="spacing" textLength="114" x="344.5" y="1332.752">SERVER_ERROR</text><text fill="#000000" font-family="sans-serif" font-size="14" lengthAdjust="spacing" textLength="133" x="344.5" y="1350.3613">USERNAME_ERROR</text><text fill="#000000" font-family="sans-serif" font-size="14" lengthAdjust="spacing" textLength="98" x="344.5" y="1367.9707">EMAIL_ERROR</text></g><!--MD5=[8e8c97e90fce63d7ba6c0202e50666ab]
class UnmatchedPasswordsException--><g id="elem_UnmatchedPasswordsException"><rect codeLine="117" fill="#F1F1F1" height="83.2188" id="UnmatchedPasswordsException" rx="2.5" ry="2.5" style="stroke:#181818;stroke-width:0.5;" width="232" x="96.5" y="142"/><ellipse cx="111.5" cy="158" fill="#ADD1B2" rx="11" ry="11" style="stroke:#181818;stroke-width:1.0;"/><path d="M114.2656,153.875 Q114.4219,153.6563 114.6094,153.5469 Q114.7969,153.4375 115.0156,153.4375 Q115.3906,153.4375 115.625,153.7031 Q115.8594,153.9531 115.8594,154.5625 L115.8594,156.0156 Q115.8594,156.625 115.625,156.8906 Q115.3906,157.1563 115.0156,157.1563 Q114.6719,157.1563 114.4688,156.9531 Q114.2656,156.7656 114.1563,156.25 Q114.1094,155.8906 113.9219,155.7031 Q113.5938,155.3281 112.9844,155.1094 Q112.375,154.8906 111.75,154.8906 Q110.9844,154.8906 110.3438,155.2188 Q109.7188,155.5469 109.2188,156.2969 Q108.7344,157.0469 108.7344,158.0781 L108.7344,159.1719 Q108.7344,160.4063 109.625,161.2344 Q110.5156,162.0469 112.1094,162.0469 Q113.0469,162.0469 113.7031,161.7969 Q114.0938,161.6406 114.5156,161.2031 Q114.7813,160.9375 114.9219,160.8594 Q115.0781,160.7813 115.2813,160.7813 Q115.6094,160.7813 115.8594,161.0469 Q116.125,161.2969 116.125,161.6406 Q116.125,161.9844 115.7813,162.3906 Q115.2813,162.9688 114.4844,163.2969 Q113.4063,163.75 112.1094,163.75 Q110.5938,163.75 109.3906,163.125 Q108.4063,162.625 107.7188,161.5625 Q107.0313,160.4844 107.0313,159.2031 L107.0313,158.0469 Q107.0313,156.7188 107.6406,155.5781 Q108.2656,154.4219 109.3594,153.8125 Q110.4531,153.1875 111.6875,153.1875 Q112.4219,153.1875 113.0625,153.3594 Q113.7188,153.5156 114.2656,153.875 Z " fill="#000000"/><text fill="#000000" font-family="sans-serif" font-size="14" lengthAdjust="spacing" textLength="200" x="125.5" y="163.7285">UnmatchedPasswordsException</text><line style="stroke:#181818;stroke-width:0.5;" x1="97.5" x2="327.5" y1="174" y2="174"/><ellipse cx="107.5" cy="188.3047" fill="none" rx="3" ry="3" style="stroke:#038048;stroke-width:1.0;"/><text fill="#000000" font-family="sans-serif" font-size="14" lengthAdjust="spacing" textLength="85" x="116.5" y="192.5332">String reason</text><line style="stroke:#181818;stroke-width:0.5;" x1="97.5" x2="327.5" y1="199.6094" y2="199.6094"/><text fill="#000000" font-family="sans-serif" font-size="14" lengthAdjust="spacing" textLength="211" x="102.5" y="218.1426">The passwords are not the same.</text></g><!--MD5=[0cf19bdbe9f2ff4608fd696f0429965f]
class EmailErrorException--><g id="elem_EmailErrorException"><rect codeLine="124" fill="#F1F1F1" height="118.4375" id="EmailErrorException" rx="2.5" ry="2.5" style="stroke:#181818;stroke-width:0.5;" width="159" x="25" y="298"/><ellipse cx="40" cy="314" fill="#ADD1B2" rx="11" ry="11" style="stroke:#181818;stroke-width:1.0;"/><path d="M42.7656,309.875 Q42.9219,309.6563 43.1094,309.5469 Q43.2969,309.4375 43.5156,309.4375 Q43.8906,309.4375 44.125,309.7031 Q44.3594,309.9531 44.3594,310.5625 L44.3594,312.0156 Q44.3594,312.625 44.125,312.8906 Q43.8906,313.1563 43.5156,313.1563 Q43.1719,313.1563 42.9688,312.9531 Q42.7656,312.7656 42.6563,312.25 Q42.6094,311.8906 42.4219,311.7031 Q42.0938,311.3281 41.4844,311.1094 Q40.875,310.8906 40.25,310.8906 Q39.4844,310.8906 38.8438,311.2188 Q38.2188,311.5469 37.7188,312.2969 Q37.2344,313.0469 37.2344,314.0781 L37.2344,315.1719 Q37.2344,316.4063 38.125,317.2344 Q39.0156,318.0469 40.6094,318.0469 Q41.5469,318.0469 42.2031,317.7969 Q42.5938,317.6406 43.0156,317.2031 Q43.2813,316.9375 43.4219,316.8594 Q43.5781,316.7813 43.7813,316.7813 Q44.1094,316.7813 44.3594,317.0469 Q44.625,317.2969 44.625,317.6406 Q44.625,317.9844 44.2813,318.3906 Q43.7813,318.9688 42.9844,319.2969 Q41.9063,319.75 40.6094,319.75 Q39.0938,319.75 37.8906,319.125 Q36.9063,318.625 36.2188,317.5625 Q35.5313,316.4844 35.5313,315.2031 L35.5313,314.0469 Q35.5313,312.7188 36.1406,311.5781 Q36.7656,310.4219 37.8594,309.8125 Q38.9531,309.1875 40.1875,309.1875 Q40.9219,309.1875 41.5625,309.3594 Q42.2188,309.5156 42.7656,309.875 Z " fill="#000000"/><text fill="#000000" font-family="sans-serif" font-size="14" lengthAdjust="spacing" textLength="127" x="54" y="319.7285">EmailErrorException</text><line style="stroke:#181818;stroke-width:0.5;" x1="26" x2="183" y1="330" y2="330"/><rect fill="none" height="6" style="stroke:#C82930;stroke-width:1.0;" width="6" x="33" y="341.3047"/><text fill="#000000" font-family="sans-serif" font-size="14" lengthAdjust="spacing" textLength="74" x="45" y="348.5332">String email</text><rect fill="none" height="6" style="stroke:#C82930;stroke-width:1.0;" width="6" x="33" y="358.9141"/><text fill="#000000" font-family="sans-serif" font-size="14" lengthAdjust="spacing" textLength="84" x="45" y="366.1426">TYPE reason</text><line style="stroke:#181818;stroke-width:0.5;" x1="26" x2="183" y1="373.2188" y2="373.2188"/><text fill="#000000" font-family="sans-serif" font-size="14" lengthAdjust="spacing" textLength="108" x="31" y="391.752">Thrown when the</text><text fill="#000000" font-family="sans-serif" font-size="14" lengthAdjust="spacing" textLength="108" x="31" y="409.3613">email is not valid.</text></g><!--MD5=[4de23727da60e3fb01270b51c64f977a]
class EmailErrorExceptionTYPE--><g id="elem_EmailErrorExceptionTYPE"><rect codeLine="131" fill="#F1F1F1" height="75.2188" id="EmailErrorExceptionTYPE" rx="2.5" ry="2.5" style="stroke:#181818;stroke-width:0.5;" width="195" x="7" y="489"/><ellipse cx="22" cy="505" fill="#EB937F" rx="11" ry="11" style="stroke:#181818;stroke-width:1.0;"/><path d="M20.8594,505.7969 L20.8594,508.2969 L25.1875,508.2969 L25.1875,507.375 Q25.1875,506.7656 25.4219,506.5 Q25.6719,506.2344 26.0469,506.2344 Q26.4219,506.2344 26.6563,506.5 Q26.8906,506.7656 26.8906,507.375 L26.8906,510 L18.8906,510 Q18.2656,510 18,509.7656 Q17.75,509.5313 17.75,509.1406 Q17.75,508.7656 18.0156,508.5313 Q18.2813,508.2969 18.8906,508.2969 L19.1563,508.2969 L19.1563,501.6406 L18.8906,501.6406 Q18.2656,501.6406 18,501.4063 Q17.75,501.1719 17.75,500.7813 Q17.75,500.4063 18,500.1719 Q18.2656,499.9375 18.8906,499.9375 L26.5156,499.9375 L26.5156,502.5313 Q26.5156,503.1406 26.2813,503.4063 Q26.0625,503.6563 25.6719,503.6563 Q25.2969,503.6563 25.0625,503.4063 Q24.8281,503.1406 24.8281,502.5313 L24.8281,501.6406 L20.8594,501.6406 L20.8594,504.0938 L22.3438,504.0938 Q22.3438,503.4375 22.4688,503.25 Q22.7344,502.8438 23.2031,502.8438 Q23.5781,502.8438 23.8125,503.1094 Q24.0469,503.3594 24.0469,503.9688 L24.0469,505.9375 Q24.0469,506.4844 23.9219,506.6719 Q23.6563,507.0625 23.2031,507.0625 Q22.7344,507.0625 22.4688,506.6563 Q22.3438,506.4688 22.3438,505.7969 L20.8594,505.7969 Z " fill="#000000"/><text fill="#000000" font-family="sans-serif" font-size="14" lengthAdjust="spacing" textLength="163" x="36" y="510.7285">EmailErrorExceptionTYPE</text><line style="stroke:#181818;stroke-width:0.5;" x1="8" x2="201" y1="521" y2="521"/><text fill="#000000" font-family="sans-serif" font-size="14" lengthAdjust="spacing" textLength="123" x="13" y="539.5332">INVALID_PATTERN</text><text fill="#000000" font-family="sans-serif" font-size="14" lengthAdjust="spacing" textLength="119" x="13" y="557.1426">ALREADY_IN_USE</text></g><!--MD5=[c11be55b258dfc5bba309641e9456ead]
class UsernameErrorException--><g id="elem_UsernameErrorException"><rect codeLine="136" fill="#F1F1F1" height="75.2188" id="UsernameErrorException" rx="2.5" ry="2.5" style="stroke:#181818;stroke-width:0.5;" width="189" x="364" y="146"/><ellipse cx="379" cy="162" fill="#ADD1B2" rx="11" ry="11" style="stroke:#181818;stroke-width:1.0;"/><path d="M381.7656,157.875 Q381.9219,157.6563 382.1094,157.5469 Q382.2969,157.4375 382.5156,157.4375 Q382.8906,157.4375 383.125,157.7031 Q383.3594,157.9531 383.3594,158.5625 L383.3594,160.0156 Q383.3594,160.625 383.125,160.8906 Q382.8906,161.1563 382.5156,161.1563 Q382.1719,161.1563 381.9688,160.9531 Q381.7656,160.7656 381.6563,160.25 Q381.6094,159.8906 381.4219,159.7031 Q381.0938,159.3281 380.4844,159.1094 Q379.875,158.8906 379.25,158.8906 Q378.4844,158.8906 377.8438,159.2188 Q377.2188,159.5469 376.7188,160.2969 Q376.2344,161.0469 376.2344,162.0781 L376.2344,163.1719 Q376.2344,164.4063 377.125,165.2344 Q378.0156,166.0469 379.6094,166.0469 Q380.5469,166.0469 381.2031,165.7969 Q381.5938,165.6406 382.0156,165.2031 Q382.2813,164.9375 382.4219,164.8594 Q382.5781,164.7813 382.7813,164.7813 Q383.1094,164.7813 383.3594,165.0469 Q383.625,165.2969 383.625,165.6406 Q383.625,165.9844 383.2813,166.3906 Q382.7813,166.9688 381.9844,167.2969 Q380.9063,167.75 379.6094,167.75 Q378.0938,167.75 376.8906,167.125 Q375.9063,166.625 375.2188,165.5625 Q374.5313,164.4844 374.5313,163.2031 L374.5313,162.0469 Q374.5313,160.7188 375.1406,159.5781 Q375.7656,158.4219 376.8594,157.8125 Q377.9531,157.1875 379.1875,157.1875 Q379.9219,157.1875 380.5625,157.3594 Q381.2188,157.5156 381.7656,157.875 Z " fill="#000000"/><text fill="#000000" font-family="sans-serif" font-size="14" lengthAdjust="spacing" textLength="157" x="393" y="167.7285">UsernameErrorException</text><line style="stroke:#181818;stroke-width:0.5;" x1="365" x2="552" y1="178" y2="178"/><rect fill="none" height="6" style="stroke:#C82930;stroke-width:1.0;" width="6" x="372" y="189.3047"/><text fill="#000000" font-family="sans-serif" font-size="14" lengthAdjust="spacing" textLength="105" x="384" y="196.5332">String userName</text><rect fill="none" height="6" style="stroke:#C82930;stroke-width:1.0;" width="6" x="372" y="206.9141"/><text fill="#000000" font-family="sans-serif" font-size="14" lengthAdjust="spacing" textLength="84" x="384" y="214.1426">TYPE reason</text></g><!--MD5=[7c9a17cfadc235483d14a1fb34d3b032]
class UsernameErrorExceptionTYPE--><g id="elem_UsernameErrorExceptionTYPE"><rect codeLine="140" fill="#F1F1F1" height="75.2188" id="UsernameErrorExceptionTYPE" rx="2.5" ry="2.5" style="stroke:#181818;stroke-width:0.5;" width="225" x="346" y="7"/><ellipse cx="361" cy="23" fill="#EB937F" rx="11" ry="11" style="stroke:#181818;stroke-width:1.0;"/><path d="M359.8594,23.7969 L359.8594,26.2969 L364.1875,26.2969 L364.1875,25.375 Q364.1875,24.7656 364.4219,24.5 Q364.6719,24.2344 365.0469,24.2344 Q365.4219,24.2344 365.6563,24.5 Q365.8906,24.7656 365.8906,25.375 L365.8906,28 L357.8906,28 Q357.2656,28 357,27.7656 Q356.75,27.5313 356.75,27.1406 Q356.75,26.7656 357.0156,26.5313 Q357.2813,26.2969 357.8906,26.2969 L358.1563,26.2969 L358.1563,19.6406 L357.8906,19.6406 Q357.2656,19.6406 357,19.4063 Q356.75,19.1719 356.75,18.7813 Q356.75,18.4063 357,18.1719 Q357.2656,17.9375 357.8906,17.9375 L365.5156,17.9375 L365.5156,20.5313 Q365.5156,21.1406 365.2813,21.4063 Q365.0625,21.6563 364.6719,21.6563 Q364.2969,21.6563 364.0625,21.4063 Q363.8281,21.1406 363.8281,20.5313 L363.8281,19.6406 L359.8594,19.6406 L359.8594,22.0938 L361.3438,22.0938 Q361.3438,21.4375 361.4688,21.25 Q361.7344,20.8438 362.2031,20.8438 Q362.5781,20.8438 362.8125,21.1094 Q363.0469,21.3594 363.0469,21.9688 L363.0469,23.9375 Q363.0469,24.4844 362.9219,24.6719 Q362.6563,25.0625 362.2031,25.0625 Q361.7344,25.0625 361.4688,24.6563 Q361.3438,24.4688 361.3438,23.7969 L359.8594,23.7969 Z " fill="#000000"/><text fill="#000000" font-family="sans-serif" font-size="14" lengthAdjust="spacing" textLength="193" x="375" y="28.7285">UsernameErrorExceptionTYPE</text><line style="stroke:#181818;stroke-width:0.5;" x1="347" x2="570" y1="39" y2="39"/><text fill="#000000" font-family="sans-serif" font-size="14" lengthAdjust="spacing" textLength="130" x="352" y="57.5332">USER_NOT_FOUND</text><text fill="#000000" font-family="sans-serif" font-size="14" lengthAdjust="spacing" textLength="193" x="352" y="75.1426">USERNAME_NOT_AVAILABLE</text></g><!--MD5=[b9ee60c057ef9ce62f98182c10546556]
link Application to LoginController--><g id="link_Application_LoginController"><path codeLine="146" d="M626.25,225.06 C626.25,245.61 626.25,270.86 626.25,293.74 " fill="none" id="Application-LoginController" style="stroke:#181818;stroke-width:1.0;"/></g><!--MD5=[2460439e77c5f7b475ccca4e2b758b8b]
link LoginController to GreetController--><g id="link_LoginController_GreetController"><path codeLine="148" d="M664.33,357 C675.83,357 687.44,357 698.73,357 " fill="none" id="LoginController-GreetController" style="stroke:#181818;stroke-width:1.0;"/></g><!--MD5=[77200539f8c98e002b257e2b6a844034]
link RegisterController to LoginController--><g id="link_RegisterController_LoginController"><path codeLine="149" d="M410.04,357 C421.42,357 433.1,357 444.65,357 " fill="none" id="RegisterController-LoginController" style="stroke:#181818;stroke-width:1.0;"/></g><!--MD5=[763540cfe94e75e5169280c4ddaa79a6]
link LoginController to UserManagerFactory--><g id="link_LoginController_UserManagerFactory"><path codeLine="151" d="M485.75,420.12 C485.75,420.12 485.75,492.45 485.75,492.45 " fill="none" id="LoginController-to-UserManagerFactory" style="stroke:#181818;stroke-width:1.0;"/><polygon fill="#181818" points="485.75,497.45,489.75,488.45,485.75,492.45,481.75,488.45,485.75,497.45" style="stroke:#181818;stroke-width:1.0;"/></g><!--MD5=[85beeede9441cd14210b777963a0699e]
link RegisterController to UserManagerFactory--><g id="link_RegisterController_UserManagerFactory"><path codeLine="152" d="M376.25,429.37 C376.25,429.37 376.25,492.36 376.25,492.36 " fill="none" id="RegisterController-to-UserManagerFactory" style="stroke:#181818;stroke-width:1.0;"/><polygon fill="#181818" points="376.25,497.36,380.25,488.36,376.25,492.36,372.25,488.36,376.25,497.36" style="stroke:#181818;stroke-width:1.0;"/></g><!--MD5=[9b2fb0d939116a1d3ab40c75a8cf2e17]
link LoginController to IUserManager--><g id="link_LoginController_IUserManager"><path codeLine="154" d="M533,420.09 C533,500.44 533,629 533,629 C533,629 509.51,629 509.51,629 " fill="none" id="LoginController-to-IUserManager" style="stroke:#181818;stroke-width:1.0;"/><polygon fill="#181818" points="504.51,629,513.51,633,509.51,629,513.51,625,504.51,629" style="stroke:#181818;stroke-width:1.0;"/></g><!--MD5=[647c7e03777b77c5c58905c57a356f09]
link RegisterController to IUserManager--><g id="link_RegisterController_IUserManager"><path codeLine="155" d="M336,429.28 C336,519.47 336,662 336,662 C336,662 359.49,662 359.49,662 " fill="none" id="RegisterController-to-IUserManager" style="stroke:#181818;stroke-width:1.0;"/><polygon fill="#181818" points="364.49,662,355.49,658,359.49,662,355.49,666,364.49,662" style="stroke:#181818;stroke-width:1.0;"/></g><!--MD5=[f08e4abf8ca80071a8513a9a33e9f3aa]
link UserManagerFactory to IUserManager--><g id="link_UserManagerFactory_IUserManager"><path codeLine="167" d="M434.5,555.79 C434.5,575.72 434.5,602.28 434.5,623.79 " fill="none" id="UserManagerFactory-IUserManager" style="stroke:#181818;stroke-width:1.0;"/></g><!--MD5=[2de4e01f467f33e0c6a0477aedfbdcb5]
reverse link IUserManager to IUMImplementation--><g id="link_IUserManager_IUMImplementation"><path codeLine="168" d="M434.5,719.24 C434.5,719.24 434.5,824.67 434.5,824.67 " fill="none" id="IUserManager-backto-IUMImplementation" style="stroke:#181818;stroke-width:1.0;stroke-dasharray:7.0,7.0;"/><polygon fill="none" points="427.5,719.24,434.5,699.24,441.5,719.24,427.5,719.24" style="stroke:#181818;stroke-width:1.0;"/></g><!--MD5=[088d7b674e90b14782bec3eacbb0c91a]
link IUMImplementation to User--><g id="link_IUMImplementation_User"><path codeLine="169" d="M539.73,865 C539.73,865 569.44,865 569.44,865 " fill="none" id="IUMImplementation-to-User" style="stroke:#181818;stroke-width:1.0;"/><polygon fill="#181818" points="574.44,865,565.44,861,569.44,865,565.44,869,574.44,865" style="stroke:#181818;stroke-width:1.0;"/></g><!--MD5=[c22d55e5c069bed538264b5712b6b47f]
reverse link Socket to IUMImplementation--><g id="link_Socket_IUMImplementation"><path codeLine="170" d="M299.69,884 C299.69,884 329.17,884 329.17,884 " fill="none" id="Socket-backto-IUMImplementation" style="stroke:#181818;stroke-width:1.0;"/><polygon fill="#181818" points="294.69,884,303.69,888,299.69,884,303.69,880,294.69,884" style="stroke:#181818;stroke-width:1.0;"/></g><!--MD5=[3aadc63566c61b3bf80e7aa9b144fdde]
reverse link SignIn to User--><g id="link_SignIn_User"><path codeLine="171" d="M690.5,695.59 C690.5,695.59 690.5,758.91 690.5,758.91 " fill="none" id="SignIn-backto-User" style="stroke:#181818;stroke-width:1.0;"/><polygon fill="#181818" points="690.5,690.59,686.5,699.59,690.5,695.59,694.5,699.59,690.5,690.59" style="stroke:#181818;stroke-width:1.0;"/></g><!--MD5=[a707a41237b41ba81250b574b753eeaa]
link IUMImplementation to Request--><g id="link_IUMImplementation_Request"><path codeLine="174" d="M539.7,904 C553.1,904 562.25,904 562.25,904 C562.25,904 562.25,1128 562.25,1128 C562.25,1128 583.9,1128 583.9,1128 " fill="none" id="IUMImplementation-to-Request" style="stroke:#181818;stroke-width:1.0;"/><polygon fill="#181818" points="588.9,1128,579.9,1124,583.9,1128,579.9,1132,588.9,1128" style="stroke:#181818;stroke-width:1.0;"/></g><!--MD5=[c20f12f4c56d1de93d7ccd8bf1a78a36]
reverse link Response to IUMImplementation--><g id="link_Response_IUMImplementation"><path codeLine="175" d="M436.25,1063.93 C436.25,1063.93 436.25,943.37 436.25,943.37 " fill="none" id="Response-backto-IUMImplementation" style="stroke:#181818;stroke-width:1.0;"/><polygon fill="#181818" points="436.25,1068.93,440.25,1059.93,436.25,1063.93,432.25,1059.93,436.25,1068.93" style="stroke:#181818;stroke-width:1.0;"/></g><!--MD5=[c58cb2988f12c4c378d2a8960f7e7c7d]
reverse link User to Request--><g id="link_User_Request"><path codeLine="177" d="M686.5,1014.22 C686.5,1014.22 686.5,1068.89 686.5,1068.89 " fill="none" id="User-backto-Request" style="stroke:#181818;stroke-width:1.0;"/><polygon fill="#181818" points="686.5,1009.22,682.5,1018.22,686.5,1014.22,690.5,1018.22,686.5,1009.22" style="stroke:#181818;stroke-width:1.0;"/></g><!--MD5=[58a3c1a5e561a23f726a95971f5e577f]
link Request to RequestType--><g id="link_Request_RequestType"><path codeLine="178" d="M686.5,1187.16 C686.5,1215.46 686.5,1248.5 686.5,1273.33 " fill="none" id="Request-RequestType" style="stroke:#181818;stroke-width:1.0;"/></g><!--MD5=[7e48744634b34728604c0ae0ed1325e4]
link User to Response--><g id="link_User_Response"><path codeLine="180" d="M574.24,976 C556.93,976 544.75,976 544.75,976 C544.75,976 544.75,1026.12 544.75,1068.8 " fill="none" id="User-Response" style="stroke:#181818;stroke-width:1.0;"/></g><!--MD5=[eaab2d02574aed421d3caa036bdcdbe0]
link Response to ResponseType--><g id="link_Response_ResponseType"><path codeLine="181" d="M441.5,1187.16 C441.5,1206.27 441.5,1227.54 441.5,1246.99 " fill="none" id="Response-ResponseType" style="stroke:#181818;stroke-width:1.0;"/></g><!--MD5=[bef6eb571cfca1f21ff19dc8098bba93]
link EmailErrorException to RegisterController--><g id="link_EmailErrorException_RegisterController"><path codeLine="184" d="M184.19,357 C195.56,357 207.35,357 218.99,357 " fill="none" id="EmailErrorException-RegisterController" style="stroke:#181818;stroke-width:1.0;"/></g><!--MD5=[e4c6ceeb480b9db325045f829d90f577]
link UnmatchedPasswordsException to RegisterController--><g id="link_UnmatchedPasswordsException_RegisterController"><path codeLine="185" d="M273.75,225.06 C273.75,243 273.75,264.53 273.75,284.93 " fill="none" id="UnmatchedPasswordsException-RegisterController" style="stroke:#181818;stroke-width:1.0;"/></g><!--MD5=[4aa95dc3c72db1b9f0c8c8a4a81044ff]
link UsernameErrorException to RegisterController--><g id="link_UsernameErrorException_RegisterController"><path codeLine="186" d="M387,221.15 C387,239.78 387,262.93 387,284.8 " fill="none" id="UsernameErrorException-RegisterController" style="stroke:#181818;stroke-width:1.0;"/></g><!--MD5=[8e18619fe77df0e729ee3093a574adbc]
link UsernameErrorException to LoginController--><g id="link_UsernameErrorException_LoginController"><path codeLine="187" d="M499,221.15 C499,242.38 499,269.45 499,293.84 " fill="none" id="UsernameErrorException-LoginController" style="stroke:#181818;stroke-width:1.0;"/></g><!--MD5=[e6a8244bbd4918735be2253ebc3dc489]
link EmailErrorException to EmailErrorExceptionTYPE--><g id="link_EmailErrorException_EmailErrorExceptionTYPE"><path codeLine="189" d="M104.5,416.28 C104.5,440.44 104.5,467.63 104.5,488.96 " fill="none" id="EmailErrorException-EmailErrorExceptionTYPE" style="stroke:#181818;stroke-width:1.0;"/></g><!--MD5=[de137d1c8fa20089720ac8e98ab49a5a]
link UsernameErrorExceptionTYPE to UsernameErrorException--><g id="link_UsernameErrorExceptionTYPE_UsernameErrorException"><path codeLine="190" d="M458.5,82.12 C458.5,101.89 458.5,126.07 458.5,145.85 " fill="none" id="UsernameErrorExceptionTYPE-UsernameErrorException" style="stroke:#181818;stroke-width:1.0;"/></g><!--MD5=[f82874b09e034a1687d44f6b78d1b3c6]
@startuml client
/'Graphic properties
'/

skinparam linetype ortho
skinparam groupInheritance 5
hide empty members

/'Main class
'/
class Application {
    -LoginWindow lw
    +void main()
}

/'Every window of the program.
Three of them.'/
class LoginController {
    -String userName
    __
    +void login()
    __
    The first window the user 
    sees when opening the program.
}
class RegisterController {
    -String credentials
    __
    +void register()
    __
    Window to enter the data for 
    a new user.

}
class GreetController {
    -String greet
    __
    GreetWindow (String greet)
}
/'Logic part of the program.
'/
interface IUserManager {
    +Message signIn()
    +Message signUp()
}
class IUMImplementation {
    +void login()
    +void signIn()
    -List getUusers()
    __
    DAO. Returns the User objects.
}
class UserManagerFactory {
    +IUserManager getUsers()
}

/'Pre-existing Java classes'/
class Socket {
    InputStream read()
    OutputStream write()
    __
    All this stuff already exists.
}
/'Objects, etc
'/
class User {
    -Integer ID
    -String login
    -String email
    -String fullName
    -String password
    -Timestamp lastPasswordChange
    -UserStatus status
    -UserPrivilege privilege
    -Collection lastLogins
    __
    +void whatever()
    __
    Object that moves the data.
}
class SignIn {
    -Timestamp lastSignIn
}
/' Message classes
'/

class Request {
    -User user
    -RequestType requestType
    __
    Stores the action to 
    be done by the server.
}

enum RequestType {
   SIGNUP 
   SIGNIN 
}

class Response {
    -User user
    -ResponseType responseType
    __
    Stores the state of the answer,
    if it went right or wrong.
}
enum ResponseType {
    OK
    LOGIN_CREDENTIAL_ERROR
    SERVER_ERROR
    USERNAME_ERROR
    EMAIL_ERROR
}


/'Exceptions.
'/
class UnmatchedPasswordsException {
    +String reason
    __
    The passwords are not the same.
}


class EmailErrorException {
    -String email
    -TYPE reason
    __
    Thrown when the 
    email is not valid.
}
enum EmailErrorExceptionTYPE {
    INVALID_PATTERN
    ALREADY_IN_USE
}

class UsernameErrorException {
    -String userName
    -TYPE reason
}
enum UsernameErrorExceptionTYPE {
    USER_NOT_FOUND
    USERNAME_NOT_AVAILABLE
}


Application - - LoginController

LoginController -right- GreetController
LoginController -left- RegisterController

LoginController -down-> UserManagerFactory
RegisterController - -> UserManagerFactory

LoginController - -> IUserManager
RegisterController - -> IUserManager

/' It looks horrible but ya have to indicate it:
User appears in every class from view.
'/

/'
LoginController - -> User
RegisterController - -> User
GreetController -down-> User
'/

UserManagerFactory - - IUserManager
IUserManager <|.. IUMImplementation
IUMImplementation -right-> User
IUMImplementation -left-> Socket
User -up-> SignIn


IUMImplementation - -> Request 
IUMImplementation -left-> Response

User <-down- Request 
RequestType -up-Request 

User -down- Response
ResponseType -up- Response


EmailErrorException -right- RegisterController
UnmatchedPasswordsException - - RegisterController
UsernameErrorException - - RegisterController
UsernameErrorException - - LoginController

EmailErrorException - - EmailErrorExceptionTYPE
UsernameErrorException -up- UsernameErrorExceptionTYPE
@enduml

@startuml client

skinparam linetype ortho
skinparam groupInheritance 5
hide empty members

class Application {
    -LoginWindow lw
    +void main()
}

class LoginController {
    -String userName
    __
    +void login()
    __
    The first window the user 
    sees when opening the program.
}
class RegisterController {
    -String credentials
    __
    +void register()
    __
    Window to enter the data for 
    a new user.

}
class GreetController {
    -String greet
    __
    GreetWindow (String greet)
}
interface IUserManager {
    +Message signIn()
    +Message signUp()
}
class IUMImplementation {
    +void login()
    +void signIn()
    -List getUusers()
    __
    DAO. Returns the User objects.
}
class UserManagerFactory {
    +IUserManager getUsers()
}

class Socket {
    InputStream read()
    OutputStream write()
    __
    All this stuff already exists.
}
class User {
    -Integer ID
    -String login
    -String email
    -String fullName
    -String password
    -Timestamp lastPasswordChange
    -UserStatus status
    -UserPrivilege privilege
    -Collection lastLogins
    __
    +void whatever()
    __
    Object that moves the data.
}
class SignIn {
    -Timestamp lastSignIn
}

class Request {
    -User user
    -RequestType requestType
    __
    Stores the action to 
    be done by the server.
}

enum RequestType {
   SIGNUP 
   SIGNIN 
}

class Response {
    -User user
    -ResponseType responseType
    __
    Stores the state of the answer,
    if it went right or wrong.
}
enum ResponseType {
    OK
    LOGIN_CREDENTIAL_ERROR
    SERVER_ERROR
    USERNAME_ERROR
    EMAIL_ERROR
}


class UnmatchedPasswordsException {
    +String reason
    __
    The passwords are not the same.
}


class EmailErrorException {
    -String email
    -TYPE reason
    __
    Thrown when the 
    email is not valid.
}
enum EmailErrorExceptionTYPE {
    INVALID_PATTERN
    ALREADY_IN_USE
}

class UsernameErrorException {
    -String userName
    -TYPE reason
}
enum UsernameErrorExceptionTYPE {
    USER_NOT_FOUND
    USERNAME_NOT_AVAILABLE
}


Application - - LoginController

LoginController -right- GreetController
LoginController -left- RegisterController

LoginController -down-> UserManagerFactory
RegisterController - -> UserManagerFactory

LoginController - -> IUserManager
RegisterController - -> IUserManager



UserManagerFactory - - IUserManager
IUserManager <|.. IUMImplementation
IUMImplementation -right-> User
IUMImplementation -left-> Socket
User -up-> SignIn


IUMImplementation - -> Request 
IUMImplementation -left-> Response

User <-down- Request 
RequestType -up-Request 

User -down- Response
ResponseType -up- Response


EmailErrorException -right- RegisterController
UnmatchedPasswordsException - - RegisterController
UsernameErrorException - - RegisterController
UsernameErrorException - - LoginController

EmailErrorException - - EmailErrorExceptionTYPE
UsernameErrorException -up- UsernameErrorExceptionTYPE
@enduml

PlantUML version 1.2022.7(Mon Aug 22 19:01:30 CEST 2022)
(GPL source distribution)
Java Runtime: OpenJDK Runtime Environment
JVM: OpenJDK 64-Bit Server VM
Default Encoding: Cp1252
Language: es
Country: ES
--></g></svg>